<svg width="0" height="0" class="hidden">
  <symbol role="img" xmlns="http://www.w3.org/2000/svg" fill="red" viewBox="0 0 24 24" id="telegram">
    <title>Telegram</title>
    <path d="M11.944 0A12 12 0 0 0 0 12a12 12 0 0 0 12 12 12 12 0 0 0 12-12A12 12 0 0 0 12 0a12 12 0 0 0-.056 0zm4.962 7.224c.1-.002.321.023.465.14a.506.506 0 0 1 .171.325c.016.093.036.306.02.472-.18 1.898-.962 6.502-1.36 8.627-.168.9-.499 1.201-.82 1.23-.696.065-1.225-.46-1.9-.902-1.056-.693-1.653-1.124-2.678-1.8-1.185-.78-.417-1.21.258-1.91.177-.184 3.247-2.977 3.307-3.23.007-.032.014-.15-.056-.212s-.174-.041-.249-.024c-.106.024-1.793 1.14-5.061 3.345-.48.33-.913.49-1.302.48-.428-.008-1.252-.241-1.865-.44-.752-.245-1.349-.374-1.297-.789.027-.216.325-.437.893-.663 3.498-1.524 5.83-2.529 6.998-3.014 3.332-1.386 4.025-1.627 4.476-1.635z"></path>
  </symbol>
  <symbol role="img" xmlns="http://www.w3.org/2000/svg" fill="red" viewBox="0 0 24 24" id="facebook">
    <title>Facebook</title>
    <path d="M24 12.073c0-6.627-5.373-12-12-12s-12 5.373-12 12c0 5.99 4.388 10.954 10.125 11.854v-8.385H7.078v-3.47h3.047V9.43c0-3.007 1.792-4.669 4.533-4.669 1.312 0 2.686.235 2.686.235v2.953H15.83c-1.491 0-1.956.925-1.956 1.874v2.25h3.328l-.532 3.47h-2.796v8.385C19.612 23.027 24 18.062 24 12.073z"></path>
  </symbol>
  <symbol role="img" xmlns="http://www.w3.org/2000/svg" fill="red" viewBox="0 0 24 24" id="twitter">
    <title>Twitter</title>
    <path d="M23.953 4.57a10 10 0 01-2.825.775 4.958 4.958 0 002.163-2.723c-.951.555-2.005.959-3.127 1.184a4.92 4.92 0 00-8.384 4.482C7.69 8.095 4.067 6.13 1.64 3.162a4.822 4.822 0 00-.666 2.475c0 1.71.87 3.213 2.188 4.096a4.904 4.904 0 01-2.228-.616v.06a4.923 4.923 0 003.946 4.827 4.996 4.996 0 01-2.212.085 4.936 4.936 0 004.604 3.417 9.867 9.867 0 01-6.102 2.105c-.39 0-.779-.023-1.17-.067a13.995 13.995 0 007.557 2.209c9.053 0 13.998-7.496 13.998-13.985 0-.21 0-.42-.015-.63A9.935 9.935 0 0024 4.59z"></path>
  </symbol>
  <symbol role="img" xmlns="http://www.w3.org/2000/svg" fill="red" viewBox="0 0 24 24" id="linkedin">
    <title>LinkedIn</title>
    <path d="M20.447 20.452h-3.554v-5.569c0-1.328-.027-3.037-1.852-3.037-1.853 0-2.136 1.445-2.136 2.939v5.667H9.351V9h3.414v1.561h.046c.477-.9 1.637-1.85 3.37-1.85 3.601 0 4.267 2.37 4.267 5.455v6.286zM5.337 7.433c-1.144 0-2.063-.926-2.063-2.065 0-1.138.92-2.063 2.063-2.063 1.14 0 2.064.925 2.064 2.063 0 1.139-.925 2.065-2.064 2.065zm1.782 13.019H3.555V9h3.564v11.452zM22.225 0H1.771C.792 0 0 .774 0 1.729v20.542C0 23.227.792 24 1.771 24h20.451C23.2 24 24 23.227 24 22.271V1.729C24 .774 23.2 0 22.222 0h.003z"></path>
  </symbol>
  <symbol xmlns="http://www.w3.org/2000/svg" fill="red" viewBox="0 0 32 32" id="location-on">
    <path d="M16 2.668A9.324 9.324 0 0 0 6.668 12C6.668 19 16 29.332 16 29.332S25.332 19 25.332 12A9.324 9.324 0 0 0 16 2.668ZM9.332 12A6.672 6.672 0 0 1 16 5.332 6.672 6.672 0 0 1 22.668 12c0 3.84-3.84 9.586-6.668 13.172C13.227 21.613 9.332 15.8 9.332 12Zm0 0"></path>
    <path d="M19.332 12a3.333 3.333 0 1 1-6.665-.001 3.333 3.333 0 0 1 6.665.001Zm0 0"></path>
  </symbol>
  <symbol xmlns="http://www.w3.org/2000/svg" fill="red" viewBox="0 0 32 32" id="phone-in-talk">
    <path d="M26.668 20.668c-1.668 0-3.27-.27-4.762-.762a1.368 1.368 0 0 0-1.36.32l-2.933 2.934a20.06 20.06 0 0 1-8.785-8.785l2.934-2.95c.37-.347.476-.866.332-1.331a15.18 15.18 0 0 1-.762-4.762C11.332 4.602 10.734 4 10 4H5.332C4.602 4 4 4.602 4 5.332 4 17.852 14.148 28 26.668 28c.73 0 1.332-.602 1.332-1.332V22c0-.734-.602-1.332-1.332-1.332ZM25.332 16H28c0-6.625-5.375-12-12-12v2.668A9.324 9.324 0 0 1 25.332 16ZM20 16h2.668A6.672 6.672 0 0 0 16 9.332V12c2.215 0 4 1.785 4 4Zm0 0"></path>
  </symbol>
  <symbol xmlns="http://www.w3.org/2000/svg" fill="red" viewBox="0 0 32 32" id="email">
    <path d="M29.332 8c0-1.465-1.2-2.668-2.664-2.668H5.332A2.676 2.676 0 0 0 2.668 8v16c0 1.465 1.2 2.668 2.664 2.668h21.336A2.676 2.676 0 0 0 29.332 24V8m-2.664 0L16 14.668 5.332 8h21.336m0 16H5.332V10.668L16 17.332l10.668-6.664Zm0 0"></path>
  </symbol>
</svg>